<?xml version="1.0" encoding="utf-8"?>
<!-- Generator: Adobe Illustrator 16.0.0, SVG Export Plug-In . SVG Version: 6.00 Build 0)  -->
<!DOCTYPE svg PUBLIC "-//W3C//DTD SVG 1.0//EN" "http://www.w3.org/TR/2001/REC-SVG-20010904/DTD/svg10.dtd">
<svg version="1.0" xmlns="http://www.w3.org/2000/svg" xmlns:xlink="http://www.w3.org/1999/xlink" x="0px" y="0px"
	 width="595.275px" height="841.89px" viewBox="0 0 595.275 841.89" enable-background="new 0 0 595.275 841.89"
	 xml:space="preserve">
<g id="ilustração">
	<polygon fill="#3B4F6D" points="280.556,576.594 228.86,599.904 280.556,623.215 172.167,656.598 73.954,599.904 172.167,543.211 	
		"/>
	<polygon fill="#3B4F6D" points="537.66,672.78 427.146,698.243 536.959,726.588 370.453,754.936 210.057,698.246 370.453,641.549 	
		"/>
	<polygon fill="#3B4F6D" points="411.685,143.236 298.372,143.213 298.315,86.543 241.696,86.543 241.892,143.229 193.515,113.668 
		103.968,260.211 152.345,289.83 98.548,307.25 144.669,447.693 198.636,429.972 198.532,486.71 230.114,486.71 230.362,429.972 
		220.326,325.554 255.798,325.562 265.796,499.179 298.315,499.179 298.315,531.699 355.007,531.699 355.065,499.177 
		387.585,499.179 397.327,325.387 433.019,325.562 423.019,429.972 454.745,429.972 500.97,289.762 	"/>
	<rect x="298.156" y="143.475" fill="#9D0E1C" width="56.691" height="388.463"/>
	<rect x="241.514" y="86.767" fill="#9D0E1C" width="56.438" height="56.532"/>
	<polygon fill="#9D0E1C" points="103.903,260.407 152.182,289.898 241.613,143.427 193.334,113.937 	"/>
	<rect x="198.532" y="429.972" fill="#9D0E1C" width="31.487" height="56.802"/>
	
		<rect x="120.213" y="295.098" transform="matrix(-0.9505 0.3107 -0.3107 -0.9505 404.1328 673.3737)" fill="#9D0E1C" width="56.456" height="147.547"/>
	<g>
		
			<image overflow="visible" width="696" height="916" xlink:href="7475255A94CD766.png"  transform="matrix(0.24 0 0 0.24 95.9863 95.8726)">
		</image>
	</g>
	<polyline fill="none" stroke="#3B4F6D" stroke-width="5" stroke-miterlimit="10" points="224.739,133.246 197.718,176.359 
		164.711,187.801 170.293,220.208 133.627,278.702 	"/>
	<g>
		
			<image overflow="visible" width="503" height="893" xlink:href="7475255A94CD76A.png"  transform="matrix(0.24 0 0 0.24 93.4688 260.0103)">
		</image>
	</g>
	<polyline fill="none" stroke="#3B4F6D" stroke-width="5" stroke-miterlimit="10" points="131.793,296.518 146.902,344.738 
		133.99,377.597 162.531,394.614 175.624,437.696 	"/>
	<polygon fill="none" stroke="#4F6381" stroke-width="5" stroke-miterlimit="10" points="386.609,313.996 445.489,314.285 
		435.495,418.633 446.544,418.633 488.561,291.188 405.332,154.602 366.193,154.766 366.397,487.839 376.864,487.84 	"/>
	<polygon fill="none" stroke="#4F6381" stroke-width="5" stroke-miterlimit="10" points="286.606,487.839 286.811,154.766 
		247.672,154.602 164.443,291.188 206.46,418.633 217.509,418.633 207.515,314.285 266.395,313.996 276.14,487.84 	"/>
</g>
<g id="planificação">
	<g>
		<polygon fill="none" stroke="#706F6F" stroke-width="0.25" stroke-miterlimit="10" points="124.867,433.226 94.307,340.695 
			98.402,307.576 144.523,447.873 		"/>
		<polygon fill="none" stroke="#706F6F" stroke-width="0.25" stroke-miterlimit="10" points="261.605,72.625 278.223,72.472 
			298.17,86.722 241.551,86.722 		"/>
		<polygon fill="none" stroke="#706F6F" stroke-width="0.25" stroke-miterlimit="10" points="241.551,143.416 152.266,289.941 
			198.49,430.152 230.217,430.152 220.217,325.742 255.652,325.742 265.65,499.359 298.17,499.359 298.227,143.392 		"/>
		<polygon fill="none" stroke="#706F6F" stroke-width="0.25" stroke-miterlimit="10" points="411.539,143.416 500.824,289.941 
			454.6,430.152 422.873,430.152 432.873,325.742 397.439,325.742 387.439,499.359 354.92,499.359 354.863,143.392 		"/>
		<polygon fill="none" stroke="#706F6F" stroke-width="0.2531" stroke-miterlimit="10" points="298.17,499.367 354.807,499.369 
			354.863,143.398 298.227,143.392 		"/>
		
			<rect x="198.387" y="430.2" fill="none" stroke="#706F6F" stroke-width="0.25" stroke-miterlimit="10" width="31.582" height="56.689"/>
		
			<rect x="241.551" y="86.722" fill="none" stroke="#706F6F" stroke-width="0.2236" stroke-miterlimit="10" width="56.619" height="56.693"/>
		
			<rect x="74.483" y="340.461" transform="matrix(0.312 0.9501 -0.9501 0.312 452.4916 112.7513)" fill="none" stroke="#706F6F" stroke-width="0.25" stroke-miterlimit="10" width="147.823" height="56.693"/>
		<polygon fill="none" stroke="#706F6F" stroke-width="0.25" stroke-miterlimit="10" points="298.17,143.416 322.662,107.062 
			298.17,86.722 		"/>
		<polygon fill="none" stroke="#706F6F" stroke-width="0.25" stroke-miterlimit="10" points="241.551,143.416 217.896,103.675 
			241.551,86.722 		"/>
		<polygon fill="none" stroke="#706F6F" stroke-width="0.25" stroke-miterlimit="10" points="198.387,430.187 144.523,447.873 
			171.455,467.3 		"/>
		<polygon fill="none" stroke="#706F6F" stroke-width="0.25" stroke-miterlimit="10" points="229.969,486.89 198.387,486.89 
			209.264,503.666 		"/>
		
			<rect x="298.17" y="499.359" fill="none" stroke="#706F6F" stroke-width="0.3573" stroke-miterlimit="10" width="56.691" height="32.52"/>
		<polygon fill="none" stroke="#706F6F" stroke-width="0.25" stroke-miterlimit="10" points="354.863,499.357 367.232,523.484 
			354.861,531.878 		"/>
		<polygon fill="none" stroke="#706F6F" stroke-width="0.25" stroke-miterlimit="10" points="298.166,499.357 285.799,523.484 
			298.17,531.878 		"/>
		
			<rect x="144.437" y="116.031" transform="matrix(-0.8533 -0.5214 0.5214 -0.8533 214.95 464.2719)" fill="none" stroke="#706F6F" stroke-width="0.2469" stroke-miterlimit="10" width="56.694" height="171.737"/>
		<polygon fill="none" stroke="#706F6F" stroke-width="0.25" stroke-miterlimit="10" points="103.822,260.39 152.199,290.009 
			106.549,290.037 		"/>
		<polygon fill="none" stroke="#706F6F" stroke-width="0.25" stroke-miterlimit="10" points="102.229,235.927 170.807,123.436 
			193.369,113.847 103.795,260.39 		"/>
	</g>
	<g>
		<polygon fill="none" stroke="#706F6F" stroke-width="0.2147" stroke-miterlimit="10" points="172.546,543.436 74.333,600.129 
			172.546,656.822 		"/>
		<polygon fill="none" stroke="#706F6F" stroke-width="0.2147" stroke-miterlimit="10" points="172.546,543.436 229.239,600.129 
			172.546,656.822 		"/>
		<polygon fill="none" stroke="#706F6F" stroke-width="0.2147" stroke-miterlimit="10" points="280.934,576.818 172.546,543.436 
			229.239,600.129 		"/>
		<polygon fill="none" stroke="#706F6F" stroke-width="0.2147" stroke-miterlimit="10" points="280.934,623.439 229.239,600.129 
			172.546,656.822 		"/>
		<polygon fill="none" stroke="#706F6F" stroke-width="0.2147" stroke-miterlimit="10" points="280.934,623.439 271.26,606.348 
			229.239,600.129 		"/>
		<polygon fill="none" stroke="#706F6F" stroke-width="0.2147" stroke-miterlimit="10" points="172.546,656.822 128.716,649.949 
			86.716,623.439 74.333,600.129 		"/>
		<polygon fill="none" stroke="#706F6F" stroke-width="0.2147" stroke-miterlimit="10" points="172.546,543.436 128.716,550.311 
			86.716,576.818 74.333,600.129 		"/>
	</g>
	<g>
		<polygon fill="none" stroke="#706F6F" stroke-width="0.2147" stroke-miterlimit="10" points="370.832,641.775 210.436,698.471 
			370.832,755.162 		"/>
		<polygon fill="none" stroke="#706F6F" stroke-width="0.2147" stroke-miterlimit="10" points="370.832,641.775 427.525,698.468 
			370.832,755.162 		"/>
		<polygon fill="none" stroke="#706F6F" stroke-width="0.2147" stroke-miterlimit="10" points="538.039,673.005 370.832,641.775 
			427.525,698.468 		"/>
		<polygon fill="none" stroke="#706F6F" stroke-width="0.2147" stroke-miterlimit="10" points="537.338,726.814 427.525,698.468 
			370.832,755.162 		"/>
		<polygon fill="none" stroke="#706F6F" stroke-width="0.2147" stroke-miterlimit="10" points="537.338,726.814 518.002,705.16 
			427.525,698.468 		"/>
		<polygon fill="none" stroke="#706F6F" stroke-width="0.2147" stroke-miterlimit="10" points="370.832,755.162 321.725,754.788 
			240.852,725.739 210.436,698.471 		"/>
		<polygon fill="none" stroke="#706F6F" stroke-width="0.2147" stroke-miterlimit="10" points="370.832,641.775 321.725,642.15 
			240.852,671.2 210.436,698.467 		"/>
	</g>
</g>
</svg>
