<?xml version="1.0" encoding="utf-8"?>
<!-- Generator: Adobe Illustrator 16.0.0, SVG Export Plug-In . SVG Version: 6.00 Build 0)  -->
<!DOCTYPE svg PUBLIC "-//W3C//DTD SVG 1.0//EN" "http://www.w3.org/TR/2001/REC-SVG-20010904/DTD/svg10.dtd">
<svg version="1.0" xmlns="http://www.w3.org/2000/svg" xmlns:xlink="http://www.w3.org/1999/xlink" x="0px" y="0px"
	 width="595.275px" height="841.89px" viewBox="0 0 595.275 841.89" enable-background="new 0 0 595.275 841.89"
	 xml:space="preserve">
<g id="ilustração">
	
		<linearGradient id="SVGID_1_" gradientUnits="userSpaceOnUse" x1="370.0903" y1="175.1621" x2="370.0903" y2="539.5134" gradientTransform="matrix(0 1 -1 0 650.2383 61.4219)">
		<stop  offset="0" style="stop-color:#3B4F6D"/>
		<stop  offset="0.0561" style="stop-color:#4E607C"/>
		<stop  offset="0.181" style="stop-color:#7B889D"/>
		<stop  offset="0.2744" style="stop-color:#97A4B3"/>
		<stop  offset="0.3252" style="stop-color:#A3AFBC"/>
		<stop  offset="0.333" style="stop-color:#A5B1BC"/>
		<stop  offset="0.362" style="stop-color:#A8B3BC"/>
		<stop  offset="0.6258" style="stop-color:#C9C9B8"/>
		<stop  offset="0.6423" style="stop-color:#C6C7B8"/>
		<stop  offset="0.7797" style="stop-color:#B4B9B6"/>
		<stop  offset="0.9031" style="stop-color:#A8B0B3"/>
		<stop  offset="1" style="stop-color:#A4ACB1"/>
	</linearGradient>
	<polygon fill="url(#SVGID_1_)" points="481.513,261.455 481.513,601.611 368.101,601.611 226.394,601.611 113.007,601.611 
		113.007,261.455 226.368,261.415 368.106,261.447 	"/>
	
		<rect x="254.923" y="346.494" fill="none" stroke="#E71D73" stroke-width="0.25" stroke-miterlimit="10" stroke-dasharray="2,6,2" width="18" height="170.078"/>
	
		<rect x="368.126" y="360.67" fill="none" stroke="#E71D73" stroke-width="0.25" stroke-miterlimit="10" stroke-dasharray="2,6,2" width="113.386" height="141.732"/>
	
		<rect x="120.094" y="289.8" fill="none" stroke="#E71D73" stroke-width="0.25" stroke-miterlimit="10" stroke-dasharray="2,6,2" width="99.213" height="283.465"/>
	<rect x="226.368" y="147.373" fill="#3B4F6D" width="142.042" height="114.042"/>
	<rect x="226.368" y="601.29" fill="#3B4F6D" width="142.042" height="114.042"/>
	<circle fill="#E71D73" cx="425.198" cy="431.759" r="6.352"/>
	<rect x="145.577" y="366.241" fill="#E71D73" width="48.246" height="130.584"/>
</g>
<g id="planificação">
	<g>
		
			<rect x="113.385" y="261.68" fill="none" stroke="#706F6F" stroke-width="0.2739" stroke-miterlimit="10" width="113.387" height="340.156"/>
		
			<rect x="226.771" y="261.68" fill="none" stroke="#706F6F" stroke-width="0.25" stroke-miterlimit="10" width="141.733" height="340.156"/>
		
			<rect x="240.925" y="134.12" transform="matrix(-1.033982e-04 -1 1 -1.033982e-04 92.6631 502.6257)" fill="none" stroke="#706F6F" stroke-width="0.25" stroke-miterlimit="10" width="113.387" height="141.733"/>
		
			<rect x="240.925" y="587.669" transform="matrix(-1.033982e-04 -1 1 -1.033982e-04 -360.8867 956.2224)" fill="none" stroke="#706F6F" stroke-width="0.25" stroke-miterlimit="10" width="113.387" height="141.733"/>
		<polygon fill="none" stroke="#706F6F" stroke-width="0.25" stroke-miterlimit="10" points="504.569,571.835 481.891,601.837 
			481.891,261.681 504.569,291.685 		"/>
		<polygon fill="none" stroke="#706F6F" stroke-width="0.25" stroke-miterlimit="10" points="90.707,291.682 113.385,261.68 
			113.385,601.836 90.707,571.833 		"/>
		<polygon fill="none" stroke="#706F6F" stroke-width="0.25" stroke-miterlimit="10" points="131.51,624.553 113.385,601.836 
			226.771,601.838 211.855,624.553 		"/>
		<polygon fill="none" stroke="#706F6F" stroke-width="0.25" stroke-miterlimit="10" points="244.877,737.952 226.752,715.235 
			368.485,715.237 353.569,737.952 		"/>
		<polygon fill="none" stroke="#706F6F" stroke-width="0.25" stroke-miterlimit="10" points="131.51,238.963 113.385,261.68 
			226.771,261.678 211.855,238.963 		"/>
		<polygon fill="none" stroke="#706F6F" stroke-width="0.25" stroke-miterlimit="10" points="244.896,125.569 226.771,148.286 
			368.504,148.284 353.59,125.569 		"/>
		
			<rect x="368.504" y="261.681" fill="none" stroke="#706F6F" stroke-width="0.2739" stroke-miterlimit="10" width="113.387" height="340.156"/>
		<polygon fill="none" stroke="#706F6F" stroke-width="0.25" stroke-miterlimit="10" points="386.629,624.554 368.504,601.837 
			481.891,601.839 466.975,624.554 		"/>
		<polygon fill="none" stroke="#706F6F" stroke-width="0.25" stroke-miterlimit="10" points="386.629,238.964 368.504,261.681 
			481.891,261.679 466.975,238.964 		"/>
	</g>
</g>
</svg>
