<?xml version="1.0" encoding="utf-8"?>
<!-- Generator: Adobe Illustrator 16.0.0, SVG Export Plug-In . SVG Version: 6.00 Build 0)  -->
<!DOCTYPE svg PUBLIC "-//W3C//DTD SVG 1.0//EN" "http://www.w3.org/TR/2001/REC-SVG-20010904/DTD/svg10.dtd">
<svg version="1.0" xmlns="http://www.w3.org/2000/svg" xmlns:xlink="http://www.w3.org/1999/xlink" x="0px" y="0px"
	 width="595.276px" height="841.89px" viewBox="0 0 595.276 841.89" enable-background="new 0 0 595.276 841.89"
	 xml:space="preserve">
<g id="ilustração">
	<polygon fill="#3B4F6D" points="172.522,265.672 285.835,265.649 285.892,208.979 342.511,208.979 342.315,265.665 
		390.692,236.104 480.239,382.647 431.862,412.266 485.659,429.686 439.538,570.129 385.571,552.408 385.675,609.146 
		354.093,609.146 353.845,552.408 363.882,447.99 328.409,447.999 318.411,621.615 285.892,621.615 285.892,654.135 229.2,654.135 
		229.142,621.613 196.622,621.615 186.88,447.823 151.188,447.999 161.188,552.408 129.462,552.408 83.237,412.198 	"/>
	<rect x="229.36" y="265.911" fill="#9D0E1C" width="56.691" height="388.463"/>
	<rect x="286.257" y="209.203" fill="#9D0E1C" width="56.438" height="56.532"/>
	<polygon fill="#9D0E1C" points="480.304,382.843 432.026,412.334 342.595,265.863 390.874,236.373 	"/>
	<rect x="354.188" y="552.408" fill="#9D0E1C" width="31.486" height="56.802"/>
	
		<rect x="407.54" y="417.534" transform="matrix(0.9505 0.3107 -0.3107 0.9505 174.197 -111.0689)" fill="#9D0E1C" width="56.456" height="147.547"/>
	<g>
		
			<image overflow="visible" width="696" height="916" xlink:href="74FBD62635B2BB1.png"  transform="matrix(0.24 0 0 0.24 321.1533 218.1494)">
		</image>
	</g>
	<polyline fill="none" stroke="#3B4F6D" stroke-width="5" stroke-miterlimit="10" points="359.388,255.634 386.489,298.795 
		419.497,310.237 413.915,342.645 450.581,401.138 	"/>
	<g>
		
			<image overflow="visible" width="503" height="893" xlink:href="74FBD62635B2BB3.png"  transform="matrix(0.24 0 0 0.24 370.167 382.4463)">
		</image>
	</g>
	<polyline fill="none" stroke="#3B4F6D" stroke-width="5" stroke-miterlimit="10" points="452.415,418.954 437.306,467.174 
		450.218,500.033 421.677,517.05 408.583,560.132 	"/>
	<polygon fill="none" stroke="#4F6381" stroke-width="5" stroke-miterlimit="10" points="197.599,436.432 138.718,436.721 
		148.712,541.069 137.663,541.069 95.647,413.624 178.876,277.038 218.015,277.202 217.81,610.275 207.343,610.276 	"/>
	<polygon fill="none" stroke="#4F6381" stroke-width="5" stroke-miterlimit="10" points="297.601,610.275 297.397,277.202 
		336.536,277.038 419.765,413.624 377.747,541.069 366.698,541.069 376.692,436.721 317.813,436.432 308.067,610.276 	"/>
</g>
<g id="planificação">
	<g>
		<polygon fill="none" stroke="#706F6F" stroke-width="0.25" stroke-miterlimit="10" points="459.341,555.662 489.901,463.131 
			485.806,430.012 439.685,570.309 		"/>
		<polygon fill="none" stroke="#706F6F" stroke-width="0.25" stroke-miterlimit="10" points="322.603,195.061 305.985,194.908 
			286.038,209.158 342.657,209.158 		"/>
		<polygon fill="none" stroke="#706F6F" stroke-width="0.25" stroke-miterlimit="10" points="342.657,265.852 431.942,412.377 
			385.718,552.588 353.991,552.588 363.991,448.178 328.556,448.178 318.558,621.795 286.038,621.795 285.981,265.828 		"/>
		<polygon fill="none" stroke="#706F6F" stroke-width="0.25" stroke-miterlimit="10" points="172.669,265.852 83.384,412.377 
			129.608,552.588 161.335,552.588 151.335,448.178 186.769,448.178 196.769,621.795 229.288,621.795 229.345,265.828 		"/>
		<polygon fill="none" stroke="#706F6F" stroke-width="0.2531" stroke-miterlimit="10" points="286.038,621.803 229.401,621.805 
			229.345,265.834 285.981,265.828 		"/>
		
			<rect x="354.239" y="552.636" fill="none" stroke="#706F6F" stroke-width="0.25" stroke-miterlimit="10" width="31.582" height="56.689"/>
		
			<rect x="286.038" y="209.158" fill="none" stroke="#706F6F" stroke-width="0.2236" stroke-miterlimit="10" width="56.619" height="56.693"/>
		
			<rect x="361.902" y="462.897" transform="matrix(-0.312 0.9501 -0.9501 -0.312 1038.5095 230.4545)" fill="none" stroke="#706F6F" stroke-width="0.25" stroke-miterlimit="10" width="147.823" height="56.693"/>
		<polygon fill="none" stroke="#706F6F" stroke-width="0.25" stroke-miterlimit="10" points="286.038,265.852 261.546,229.498 
			286.038,209.158 		"/>
		<polygon fill="none" stroke="#706F6F" stroke-width="0.25" stroke-miterlimit="10" points="342.657,265.852 366.312,226.111 
			342.657,209.158 		"/>
		<polygon fill="none" stroke="#706F6F" stroke-width="0.25" stroke-miterlimit="10" points="385.821,552.623 439.685,570.309 
			412.753,589.736 		"/>
		<polygon fill="none" stroke="#706F6F" stroke-width="0.25" stroke-miterlimit="10" points="354.239,609.326 385.821,609.326 
			374.944,626.102 		"/>
		
			<rect x="229.347" y="621.795" fill="none" stroke="#706F6F" stroke-width="0.3573" stroke-miterlimit="10" width="56.691" height="32.52"/>
		<polygon fill="none" stroke="#706F6F" stroke-width="0.25" stroke-miterlimit="10" points="229.345,621.793 216.976,645.92 
			229.347,654.314 		"/>
		<polygon fill="none" stroke="#706F6F" stroke-width="0.25" stroke-miterlimit="10" points="286.042,621.793 298.409,645.92 
			286.038,654.314 		"/>
		
			<rect x="383.077" y="238.467" transform="matrix(0.8533 -0.5214 0.5214 0.8533 -108.7582 262.0981)" fill="none" stroke="#706F6F" stroke-width="0.2469" stroke-miterlimit="10" width="56.694" height="171.737"/>
		<polygon fill="none" stroke="#706F6F" stroke-width="0.25" stroke-miterlimit="10" points="480.386,382.826 432.009,412.445 
			477.659,412.473 		"/>
		<polygon fill="none" stroke="#706F6F" stroke-width="0.25" stroke-miterlimit="10" points="481.979,358.363 413.401,245.871 
			390.839,236.283 480.413,382.826 		"/>
	</g>
</g>
</svg>
